<svg width="32" height="32" viewBox="0 0 32 32" fill="none" xmlns="http://www.w3.org/2000/svg">
  <circle cx="16" cy="16" r="16" fill="url(#paint0_radial_1_2)" />
  <path d="M16.0001 7.89551C12.3071 7.89551 9.31445 10.8881 9.31445 14.5811C9.31445 16.7061 10.3465 18.5981 11.9805 19.6961C11.4055 20.6581 10.6865 21.3091 9.89745 21.3091C9.43745 21.3091 9.11045 21.0871 8.89845 20.6891C8.69645 20.3111 8.64745 19.8001 8.84945 19.2101C8.95245 18.8671 8.94045 18.5981 8.80445 18.4011C8.64045 18.1571 8.31345 18.0221 7.89345 18.0221C7.46145 18.0221 7.13945 18.1571 6.97545 18.4001C6.84445 18.5971 6.82745 18.8671 6.93045 19.2101C7.23945 20.1441 7.18545 21.1291 6.75845 21.9461C6.37845 22.6781 5.75545 23.1701 5.01245 23.3281C4.71945 23.3911 4.53345 23.5441 4.47945 23.7551C4.42545 23.9661 4.51745 24.2041 4.74545 24.4111C5.32545 24.9381 6.11045 25.1991 6.98545 25.1991C7.69245 25.1991 8.43645 25.0121 9.13845 24.6071C10.3775 23.8771 11.3095 22.5341 11.7135 21.0831C13.0165 21.8661 14.5595 22.3031 16.2075 22.3031C16.9775 22.3031 17.8005 22.1911 18.6525 21.9721C18.9515 22.9771 19.5885 23.8491 20.4245 24.4211C21.2765 25.0051 22.2815 25.2541 23.2125 25.0481C23.5145 24.9861 23.7035 24.8341 23.7575 24.6241C23.8115 24.4141 23.7165 24.1761 23.4885 23.9691C22.8955 23.4421 22.7045 22.9361 22.8705 22.5441C23.0975 22.0241 23.9695 21.8471 25.1815 22.0151C25.5385 22.0631 25.8145 21.9861 25.9785 21.7911C26.1425 21.5961 26.1885 21.3001 26.1035 20.9561C25.7945 19.7731 24.8265 19.0591 23.5035 19.0621C22.6195 19.0641 21.6935 19.3801 20.8345 19.9151C19.3845 18.7541 18.5195 16.7951 18.5195 14.5801C18.5195 10.8881 15.5265 7.89551 11.8335 7.89551H16.0001ZM13.1195 12.7511C12.5165 12.7511 12.0135 13.2531 12.0135 13.8571C12.0135 14.4601 12.5165 14.9631 13.1195 14.9631C13.7235 14.9631 14.2255 14.4601 14.2255 13.8571C14.2255 13.2531 13.7235 12.7511 13.1195 12.7511ZM18.8815 12.7511C18.2775 12.7511 17.7755 13.2531 17.7755 13.8571C17.7755 14.4601 18.2775 14.9631 18.8815 14.9631C19.4845 14.9631 19.9875 14.4601 19.9875 13.8571C19.9875 13.2531 19.4845 12.7511 18.8815 12.7511Z" fill="white"/>
  <defs>
    <radialGradient id="paint0_radial_1_2" cx="0" cy="0" r="1" gradientUnits="userSpaceOnUse" gradientTransform="translate(16 16) rotate(90) scale(16)">
      <stop stop-color="#8B5CF6" />
      <stop offset="1" stop-color="#38BDF8" />
    </radialGradient>
  </defs>
</svg>